<svg width="42" height="42" viewBox="0 0 42 42" fill="none" xmlns="http://www.w3.org/2000/svg">
<circle cx="21" cy="21" r="20.6111" stroke="#E3E8F1" stroke-width="0.777778"/>
<path d="M31.501 21.2333C31.501 20.37 31.4296 19.74 31.2748 19.0867H21.2153V22.9833H27.12C27.001 23.9517 26.3582 25.41 24.9296 26.3899L24.9096 26.5204L28.0902 28.9351L28.3106 28.9567C30.3343 27.125 31.501 24.43 31.501 21.2333Z" fill="#4285F4"/>
<path d="M21.2147 31.5001C24.1075 31.5001 26.5361 30.5667 28.3099 28.9567L24.929 26.39C24.0242 27.0083 22.8099 27.44 21.2147 27.44C18.3814 27.44 15.9767 25.6084 15.1195 23.0767L14.9938 23.0871L11.6866 25.5955L11.6433 25.7133C13.4052 29.1433 17.0242 31.5001 21.2147 31.5001Z" fill="#34A853"/>
<path d="M15.1201 23.0767C14.8939 22.4234 14.763 21.7233 14.763 21C14.763 20.2767 14.8939 19.5767 15.1082 18.9234L15.1022 18.7842L11.7535 16.2356L11.6439 16.2867C10.9178 17.71 10.5011 19.3084 10.5011 21C10.5011 22.6917 10.9178 24.29 11.6439 25.7133L15.1201 23.0767Z" fill="#FBBC05"/>
<path d="M21.2148 14.56C23.2267 14.56 24.5838 15.4116 25.3576 16.1233L28.3814 13.23C26.5243 11.5383 24.1076 10.5 21.2148 10.5C17.0243 10.5 13.4052 12.8566 11.6433 16.2866L15.1076 18.9233C15.9767 16.3917 18.3815 14.56 21.2148 14.56Z" fill="#EB4335"/>
</svg>
